<svg xmlns="http://www.w3.org/2000/svg" width="1200" height="900" viewBox="0 0 1200 900" role="img" aria-labelledby="title desc">
  <title id="title">Planner Dopamina TDAH</title>
  <desc id="desc">Mockup visual do planner com foco diario, menu de dopamina, projetos e financas.</desc>
  <defs>
    <linearGradient id="bg" x1="0" y1="0" x2="1" y2="1">
      <stop offset="0" stop-color="#8bd8ff"/>
      <stop offset="0.48" stop-color="#fff06a"/>
      <stop offset="1" stop-color="#ff8fc8"/>
    </linearGradient>
    <filter id="shadow" x="-20%" y="-20%" width="140%" height="140%">
      <feDropShadow dx="0" dy="26" stdDeviation="24" flood-color="#5d4a3f" flood-opacity=".24"/>
    </filter>
  </defs>
  <rect width="1200" height="900" fill="url(#bg)"/>
  <circle cx="1040" cy="130" r="92" fill="#ffffff" opacity=".42"/>
  <circle cx="135" cy="760" r="120" fill="#ffffff" opacity=".28"/>
  <g transform="translate(92 88)" filter="url(#shadow)">
    <rect x="0" y="0" width="1016" height="724" rx="34" fill="#f8f5f2"/>
    <rect x="0" y="0" width="1016" height="78" rx="34" fill="#242220"/>
    <rect x="0" y="50" width="1016" height="48" fill="#242220"/>
    <circle cx="52" cy="40" r="10" fill="#ff8cae"/>
    <circle cx="84" cy="40" r="10" fill="#ffd66b"/>
    <circle cx="116" cy="40" r="10" fill="#86d68f"/>
    <text x="504" y="50" text-anchor="middle" fill="#e8e1d9" font-family="Inter, Arial, sans-serif" font-size="22" font-weight="800" letter-spacing="2">PLANNER DOPAMINA TDAH</text>
    <rect x="36" y="116" width="214" height="572" rx="22" fill="#ffffff"/>
    <text x="62" y="158" fill="#a6927c" font-family="Inter, Arial, sans-serif" font-size="15" font-weight="800">ABAS</text>
    <rect x="60" y="188" width="154" height="42" rx="12" fill="#b8e1ff"/>
    <text x="82" y="215" fill="#2f4150" font-family="Inter, Arial, sans-serif" font-size="16" font-weight="800">Foco hoje</text>
    <rect x="60" y="250" width="154" height="42" rx="12" fill="#fff0a8"/>
    <text x="82" y="277" fill="#6d5b1e" font-family="Inter, Arial, sans-serif" font-size="16" font-weight="800">Dopamina</text>
    <rect x="60" y="312" width="154" height="42" rx="12" fill="#ccffcc"/>
    <text x="82" y="339" fill="#315c31" font-family="Inter, Arial, sans-serif" font-size="16" font-weight="800">Projetos</text>
    <rect x="60" y="374" width="154" height="42" rx="12" fill="#ffcee4"/>
    <text x="82" y="401" fill="#74374f" font-family="Inter, Arial, sans-serif" font-size="16" font-weight="800">Financas</text>
    <rect x="296" y="116" width="328" height="250" rx="24" fill="#ffffff"/>
    <text x="326" y="163" fill="#3d3d3d" font-family="Georgia, serif" font-size="42" font-style="italic" font-weight="700">Foco Profundo</text>
    <text x="328" y="194" fill="#a6927c" font-family="Inter, Arial, sans-serif" font-size="15" font-weight="800" letter-spacing="2">PRIORIDADE #1</text>
    <g font-family="Inter, Arial, sans-serif" font-size="18" fill="#3d3d3d">
      <rect x="328" y="232" width="24" height="24" rx="6" fill="#a6927c"/>
      <text x="370" y="251">Bloco de foco de 25 min</text>
      <rect x="328" y="278" width="24" height="24" rx="6" fill="none" stroke="#a6927c" stroke-width="4"/>
      <text x="370" y="297">Responder mensagens criticas</text>
      <rect x="328" y="324" width="24" height="24" rx="6" fill="none" stroke="#a6927c" stroke-width="4"/>
      <text x="370" y="343">Revisao de 5 minutos</text>
    </g>
    <rect x="660" y="116" width="320" height="250" rx="24" fill="#fff9d8"/>
    <text x="692" y="160" fill="#6d5b1e" font-family="Georgia, serif" font-size="34" font-style="italic" font-weight="700">Menu dopamina</text>
    <rect x="696" y="202" width="238" height="16" rx="8" fill="#e2c857"/>
    <rect x="696" y="242" width="196" height="16" rx="8" fill="#e2c857" opacity=".62"/>
    <rect x="696" y="282" width="262" height="16" rx="8" fill="#e2c857" opacity=".42"/>
    <text x="696" y="336" fill="#6d5b1e" font-family="Inter, Arial, sans-serif" font-size="18" font-weight="800">energia sem caos</text>
    <rect x="296" y="410" width="684" height="232" rx="24" fill="#ffffff"/>
    <text x="328" y="460" fill="#3d3d3d" font-family="Georgia, serif" font-size="36" font-style="italic" font-weight="700">Projetos + dinheiro</text>
    <g font-family="Inter, Arial, sans-serif" font-size="17" fill="#3d3d3d">
      <text x="328" y="514" font-weight="800" fill="#a6927c">PROJETO</text>
      <text x="690" y="514" font-weight="800" fill="#a6927c">STATUS</text>
      <line x1="328" y1="536" x2="932" y2="536" stroke="#e8e1d9" stroke-width="2"/>
      <text x="328" y="574">Pagina de vendas</text>
      <text x="690" y="574">Em revisao</text>
      <text x="328" y="616">Campanha lancamento</text>
      <text x="690" y="616">Hoje</text>
    </g>
  </g>
</svg>
