<svg xmlns="http://www.w3.org/2000/svg" width="1200" height="900" viewBox="0 0 1200 900" role="img" aria-labelledby="title desc">
  <title id="title">Diario IT GIRL Minimalista</title>
  <desc id="desc">Mockup visual com rotina matinal, diario, autocuidado, fitness e humor.</desc>
  <defs>
    <linearGradient id="bg" x1="0" y1="0" x2="1" y2="1">
      <stop offset="0" stop-color="#ffe1ef"/>
      <stop offset=".52" stop-color="#f4efe8"/>
      <stop offset="1" stop-color="#d8f6d8"/>
    </linearGradient>
    <filter id="shadow" x="-20%" y="-20%" width="140%" height="140%">
      <feDropShadow dx="0" dy="26" stdDeviation="24" flood-color="#5d4a3f" flood-opacity=".22"/>
    </filter>
  </defs>
  <rect width="1200" height="900" fill="url(#bg)"/>
  <rect x="86" y="82" width="1028" height="736" rx="38" fill="#f8f5f2" filter="url(#shadow)"/>
  <rect x="128" y="132" width="944" height="120" rx="28" fill="#ffffff"/>
  <text x="170" y="185" fill="#3d3d3d" font-family="Georgia, serif" font-size="46" font-style="italic" font-weight="700">Wellness Journal</text>
  <text x="172" y="218" fill="#a6927c" font-family="Inter, Arial, sans-serif" font-size="15" font-weight="800" letter-spacing="2">ROTINA, HUMOR E AUTOCUIDADO</text>
  <g transform="translate(128 292)">
    <rect width="294" height="426" rx="28" fill="#fff8cd"/>
    <text x="34" y="58" fill="#6c5b25" font-family="Georgia, serif" font-size="34" font-style="italic" font-weight="700">Morning</text>
    <g font-family="Inter, Arial, sans-serif" font-size="18" fill="#3d3d3d">
      <rect x="38" y="102" width="24" height="24" rx="7" fill="#a6927c"/>
      <text x="82" y="122">Agua + luz natural</text>
      <rect x="38" y="154" width="24" height="24" rx="7" fill="#a6927c"/>
      <text x="82" y="174">Skincare simples</text>
      <rect x="38" y="206" width="24" height="24" rx="7" fill="none" stroke="#a6927c" stroke-width="4"/>
      <text x="82" y="226">Alongamento</text>
    </g>
    <rect x="34" y="292" width="226" height="54" rx="18" fill="#ffffff" opacity=".72"/>
    <text x="58" y="326" fill="#6c5b25" font-family="Inter, Arial, sans-serif" font-size="17" font-weight="800">comece radiante</text>
  </g>
  <g transform="translate(454 292)">
    <rect width="294" height="426" rx="28" fill="#ffffff"/>
    <text x="34" y="58" fill="#3d3d3d" font-family="Georgia, serif" font-size="34" font-style="italic" font-weight="700">Journal</text>
    <line x1="34" y1="108" x2="252" y2="108" stroke="#e8e1d9" stroke-width="3"/>
    <line x1="34" y1="158" x2="252" y2="158" stroke="#e8e1d9" stroke-width="3"/>
    <line x1="34" y1="208" x2="252" y2="208" stroke="#e8e1d9" stroke-width="3"/>
    <line x1="34" y1="258" x2="210" y2="258" stroke="#e8e1d9" stroke-width="3"/>
    <text x="34" y="330" fill="#a6927c" font-family="Inter, Arial, sans-serif" font-size="16" font-weight="800">gratidao + reflexao</text>
  </g>
  <g transform="translate(780 292)">
    <rect width="294" height="426" rx="28" fill="#edfbed"/>
    <text x="34" y="58" fill="#315c31" font-family="Georgia, serif" font-size="34" font-style="italic" font-weight="700">Habits</text>
    <g fill="none" stroke="#a6927c" stroke-width="4">
      <rect x="34" y="96" width="218" height="224" rx="16" fill="#ffffff"/>
      <line x1="34" y1="152" x2="252" y2="152"/>
      <line x1="34" y1="208" x2="252" y2="208"/>
      <line x1="34" y1="264" x2="252" y2="264"/>
      <line x1="112" y1="96" x2="112" y2="320"/>
      <line x1="158" y1="96" x2="158" y2="320"/>
      <line x1="204" y1="96" x2="204" y2="320"/>
    </g>
    <circle cx="135" cy="180" r="12" fill="#a6927c"/>
    <circle cx="181" cy="236" r="12" fill="#a6927c"/>
    <circle cx="227" cy="292" r="12" fill="#a6927c"/>
    <text x="34" y="372" fill="#315c31" font-family="Inter, Arial, sans-serif" font-size="17" font-weight="800">fitness + humor</text>
  </g>
</svg>
